<svg width="1478" height="1478" viewBox="0 0 1478 1478" fill="none" xmlns="http://www.w3.org/2000/svg">
<rect width="1478" height="1478" rx="150" fill="#070707"/>
<path d="M131.77 730H199.27C200.603 741.333 205.77 751.667 214.77 761C224.103 770 236.27 777.167 251.27 782.5C266.27 787.5 283.103 790 301.77 790C318.77 790 332.77 788.167 343.77 784.5C354.77 780.833 362.936 775.667 368.27 769C373.603 762.333 376.27 754.333 376.27 745C376.27 736 372.936 729.167 366.27 724.5C359.603 719.5 349.103 715.5 334.77 712.5C320.436 709.167 301.603 705.833 278.27 702.5C259.936 699.833 242.603 696.167 226.27 691.5C209.936 686.5 195.436 680.167 182.77 672.5C170.436 664.833 160.603 655.5 153.27 644.5C146.27 633.167 142.77 619.833 142.77 604.5C142.77 585.5 148.103 568.833 158.77 554.5C169.77 540.167 185.936 529 207.27 521C228.603 513 254.77 509 285.77 509C332.436 509 368.27 519 393.27 539C418.603 558.667 430.936 585.833 430.27 620.5H365.27C363.936 600.833 355.603 586.667 340.27 578C325.27 569.333 306.27 565 283.27 565C261.936 565 244.27 568.167 230.27 574.5C216.603 580.833 209.77 591.667 209.77 607C209.77 613 211.436 618.333 214.77 623C218.103 627.333 223.77 631.167 231.77 634.5C239.77 637.833 250.603 641 264.27 644C277.936 647 294.936 650 315.27 653C334.27 655.667 351.436 659.333 366.77 664C382.436 668.333 395.77 674.167 406.77 681.5C418.103 688.5 426.77 697.5 432.77 708.5C438.77 719.5 441.77 733 441.77 749C441.77 768.667 436.603 785.833 426.27 800.5C416.27 814.833 400.603 826 379.27 834C358.27 842 330.936 846 297.27 846C273.27 846 252.103 843.5 233.77 838.5C215.436 833.167 199.603 826.167 186.27 817.5C172.936 808.833 162.103 799.333 153.77 789C145.436 778.667 139.436 768.333 135.77 758C132.436 747.667 131.103 738.333 131.77 730ZM638.438 845C607.104 845 579.438 840 555.438 830C531.771 820 513.271 805.5 499.938 786.5C486.604 767.167 479.938 743.5 479.938 715.5C479.938 687.5 486.604 663.833 499.938 644.5C513.271 624.833 531.771 610 555.438 600C579.438 590 607.104 585 638.438 585C669.771 585 697.104 590 720.438 600C744.104 610 762.604 624.833 775.938 644.5C789.271 663.833 795.938 687.5 795.938 715.5C795.938 743.5 789.271 767.167 775.938 786.5C762.604 805.5 744.104 820 720.438 830C697.104 840 669.771 845 638.438 845ZM638.438 795C655.771 795 671.271 792 684.938 786C698.938 779.667 709.938 770.667 717.938 759C725.938 747 729.938 732.5 729.938 715.5C729.938 698.5 725.938 684 717.938 672C709.938 659.667 699.104 650.333 685.438 644C671.771 637.667 656.104 634.5 638.438 634.5C621.104 634.5 605.438 637.667 591.438 644C577.438 650.333 566.271 659.5 557.938 671.5C549.938 683.5 545.938 698.167 545.938 715.5C545.938 732.5 549.938 747 557.938 759C565.938 770.667 576.938 779.667 590.938 786C604.938 792 620.771 795 638.438 795ZM843.988 590.5H908.988V839H843.988V590.5ZM1004.49 644C985.822 644 969.655 647.667 955.988 655C942.322 662 931.322 670.667 922.988 681C914.655 691.333 908.822 701.333 905.488 711L904.988 683.5C905.322 679.5 906.655 673.667 908.988 666C911.322 658 914.822 649.5 919.488 640.5C924.155 631.167 930.322 622.333 937.988 614C945.655 605.333 954.988 598.333 965.988 593C976.988 587.667 989.822 585 1004.49 585V644ZM1165.67 844.5C1141.01 844.5 1118.51 839.167 1098.17 828.5C1078.17 817.5 1062.17 802.333 1050.17 783C1038.51 763.333 1032.67 740.667 1032.67 715C1032.67 688.667 1038.67 665.833 1050.67 646.5C1062.67 627.167 1078.84 612.167 1099.17 601.5C1119.84 590.5 1143.17 585 1169.17 585C1197.84 585 1220.84 590.833 1238.17 602.5C1255.84 613.833 1268.67 629.333 1276.67 649C1284.67 668.667 1288.67 690.667 1288.67 715C1288.67 729.667 1286.34 744.667 1281.67 760C1277.01 775 1269.84 789 1260.17 802C1250.51 814.667 1237.84 825 1222.17 833C1206.51 840.667 1187.67 844.5 1165.67 844.5ZM1186.67 794.5C1206.34 794.5 1223.34 791.167 1237.67 784.5C1252.01 777.833 1263.01 768.5 1270.67 756.5C1278.34 744.5 1282.17 730.667 1282.17 715C1282.17 698 1278.17 683.667 1270.17 672C1262.51 660 1251.51 651 1237.17 645C1223.17 638.667 1206.34 635.5 1186.67 635.5C1159.01 635.5 1137.51 642.833 1122.17 657.5C1106.84 671.833 1099.17 691 1099.17 715C1099.17 731 1102.84 745 1110.17 757C1117.51 768.667 1127.67 777.833 1140.67 784.5C1154.01 791.167 1169.34 794.5 1186.67 794.5ZM1282.17 590.5H1347.17V839H1286.67C1286.67 839 1286.17 835.833 1285.17 829.5C1284.51 822.833 1283.84 814.5 1283.17 804.5C1282.51 794.5 1282.17 784.667 1282.17 775V590.5Z" fill="url(#paint0_linear_159_28)"/>
<path d="M131.77 730H199.27C200.603 741.333 205.77 751.667 214.77 761C224.103 770 236.27 777.167 251.27 782.5C266.27 787.5 283.103 790 301.77 790C318.77 790 332.77 788.167 343.77 784.5C354.77 780.833 362.936 775.667 368.27 769C373.603 762.333 376.27 754.333 376.27 745C376.27 736 372.936 729.167 366.27 724.5C359.603 719.5 349.103 715.5 334.77 712.5C320.436 709.167 301.603 705.833 278.27 702.5C259.936 699.833 242.603 696.167 226.27 691.5C209.936 686.5 195.436 680.167 182.77 672.5C170.436 664.833 160.603 655.5 153.27 644.5C146.27 633.167 142.77 619.833 142.77 604.5C142.77 585.5 148.103 568.833 158.77 554.5C169.77 540.167 185.936 529 207.27 521C228.603 513 254.77 509 285.77 509C332.436 509 368.27 519 393.27 539C418.603 558.667 430.936 585.833 430.27 620.5H365.27C363.936 600.833 355.603 586.667 340.27 578C325.27 569.333 306.27 565 283.27 565C261.936 565 244.27 568.167 230.27 574.5C216.603 580.833 209.77 591.667 209.77 607C209.77 613 211.436 618.333 214.77 623C218.103 627.333 223.77 631.167 231.77 634.5C239.77 637.833 250.603 641 264.27 644C277.936 647 294.936 650 315.27 653C334.27 655.667 351.436 659.333 366.77 664C382.436 668.333 395.77 674.167 406.77 681.5C418.103 688.5 426.77 697.5 432.77 708.5C438.77 719.5 441.77 733 441.77 749C441.77 768.667 436.603 785.833 426.27 800.5C416.27 814.833 400.603 826 379.27 834C358.27 842 330.936 846 297.27 846C273.27 846 252.103 843.5 233.77 838.5C215.436 833.167 199.603 826.167 186.27 817.5C172.936 808.833 162.103 799.333 153.77 789C145.436 778.667 139.436 768.333 135.77 758C132.436 747.667 131.103 738.333 131.77 730ZM638.438 845C607.104 845 579.438 840 555.438 830C531.771 820 513.271 805.5 499.938 786.5C486.604 767.167 479.938 743.5 479.938 715.5C479.938 687.5 486.604 663.833 499.938 644.5C513.271 624.833 531.771 610 555.438 600C579.438 590 607.104 585 638.438 585C669.771 585 697.104 590 720.438 600C744.104 610 762.604 624.833 775.938 644.5C789.271 663.833 795.938 687.5 795.938 715.5C795.938 743.5 789.271 767.167 775.938 786.5C762.604 805.5 744.104 820 720.438 830C697.104 840 669.771 845 638.438 845ZM638.438 795C655.771 795 671.271 792 684.938 786C698.938 779.667 709.938 770.667 717.938 759C725.938 747 729.938 732.5 729.938 715.5C729.938 698.5 725.938 684 717.938 672C709.938 659.667 699.104 650.333 685.438 644C671.771 637.667 656.104 634.5 638.438 634.5C621.104 634.5 605.438 637.667 591.438 644C577.438 650.333 566.271 659.5 557.938 671.5C549.938 683.5 545.938 698.167 545.938 715.5C545.938 732.5 549.938 747 557.938 759C565.938 770.667 576.938 779.667 590.938 786C604.938 792 620.771 795 638.438 795ZM843.988 590.5H908.988V839H843.988V590.5ZM1004.49 644C985.822 644 969.655 647.667 955.988 655C942.322 662 931.322 670.667 922.988 681C914.655 691.333 908.822 701.333 905.488 711L904.988 683.5C905.322 679.5 906.655 673.667 908.988 666C911.322 658 914.822 649.5 919.488 640.5C924.155 631.167 930.322 622.333 937.988 614C945.655 605.333 954.988 598.333 965.988 593C976.988 587.667 989.822 585 1004.49 585V644ZM1165.67 844.5C1141.01 844.5 1118.51 839.167 1098.17 828.5C1078.17 817.5 1062.17 802.333 1050.17 783C1038.51 763.333 1032.67 740.667 1032.67 715C1032.67 688.667 1038.67 665.833 1050.67 646.5C1062.67 627.167 1078.84 612.167 1099.17 601.5C1119.84 590.5 1143.17 585 1169.17 585C1197.84 585 1220.84 590.833 1238.17 602.5C1255.84 613.833 1268.67 629.333 1276.67 649C1284.67 668.667 1288.67 690.667 1288.67 715C1288.67 729.667 1286.34 744.667 1281.67 760C1277.01 775 1269.84 789 1260.17 802C1250.51 814.667 1237.84 825 1222.17 833C1206.51 840.667 1187.67 844.5 1165.67 844.5ZM1186.67 794.5C1206.34 794.5 1223.34 791.167 1237.67 784.5C1252.01 777.833 1263.01 768.5 1270.67 756.5C1278.34 744.5 1282.17 730.667 1282.17 715C1282.17 698 1278.17 683.667 1270.17 672C1262.51 660 1251.51 651 1237.17 645C1223.17 638.667 1206.34 635.5 1186.67 635.5C1159.01 635.5 1137.51 642.833 1122.17 657.5C1106.84 671.833 1099.17 691 1099.17 715C1099.17 731 1102.84 745 1110.17 757C1117.51 768.667 1127.67 777.833 1140.67 784.5C1154.01 791.167 1169.34 794.5 1186.67 794.5ZM1282.17 590.5H1347.17V839H1286.67C1286.67 839 1286.17 835.833 1285.17 829.5C1284.51 822.833 1283.84 814.5 1283.17 804.5C1282.51 794.5 1282.17 784.667 1282.17 775V590.5Z" fill="url(#paint1_linear_159_28)"/>
<defs>
<linearGradient id="paint0_linear_159_28" x1="-532.911" y1="593.5" x2="2011" y2="1262.5" gradientUnits="userSpaceOnUse">
<stop offset="0.229993" stop-color="#407CD3"/>
<stop offset="1" stop-color="white" stop-opacity="0"/>
</linearGradient>
<linearGradient id="paint1_linear_159_28" x1="-532.911" y1="593.5" x2="2011" y2="1262.5" gradientUnits="userSpaceOnUse">
<stop offset="0.229993" stop-color="#407CD3"/>
<stop offset="1" stop-color="white" stop-opacity="0"/>
</linearGradient>
</defs>
</svg>
