<svg width="2424" height="728" viewBox="0 0 2424 728" fill="none" xmlns="http://www.w3.org/2000/svg">
<rect width="2424" height="728" fill="white"/>
<path d="M278.523 429H346.023C347.357 440.333 352.523 450.667 361.523 460C370.857 469 383.023 476.167 398.023 481.5C413.023 486.5 429.857 489 448.523 489C465.523 489 479.523 487.167 490.523 483.5C501.523 479.833 509.69 474.667 515.023 468C520.357 461.333 523.023 453.333 523.023 444C523.023 435 519.69 428.167 513.023 423.5C506.357 418.5 495.857 414.5 481.523 411.5C467.19 408.167 448.357 404.833 425.023 401.5C406.69 398.833 389.357 395.167 373.023 390.5C356.69 385.5 342.19 379.167 329.523 371.5C317.19 363.833 307.357 354.5 300.023 343.5C293.023 332.167 289.523 318.833 289.523 303.5C289.523 284.5 294.857 267.833 305.523 253.5C316.523 239.167 332.69 228 354.023 220C375.357 212 401.523 208 432.523 208C479.19 208 515.023 218 540.023 238C565.357 257.667 577.69 284.833 577.023 319.5H512.023C510.69 299.833 502.357 285.667 487.023 277C472.023 268.333 453.023 264 430.023 264C408.69 264 391.023 267.167 377.023 273.5C363.357 279.833 356.523 290.667 356.523 306C356.523 312 358.19 317.333 361.523 322C364.857 326.333 370.523 330.167 378.523 333.5C386.523 336.833 397.357 340 411.023 343C424.69 346 441.69 349 462.023 352C481.023 354.667 498.19 358.333 513.523 363C529.19 367.333 542.523 373.167 553.523 380.5C564.857 387.5 573.523 396.5 579.523 407.5C585.523 418.5 588.523 432 588.523 448C588.523 467.667 583.357 484.833 573.023 499.5C563.023 513.833 547.357 525 526.023 533C505.023 541 477.69 545 444.023 545C420.023 545 398.857 542.5 380.523 537.5C362.19 532.167 346.357 525.167 333.023 516.5C319.69 507.833 308.857 498.333 300.523 488C292.19 477.667 286.19 467.333 282.523 457C279.19 446.667 277.857 437.333 278.523 429ZM785.191 544C753.858 544 726.191 539 702.191 529C678.525 519 660.025 504.5 646.691 485.5C633.358 466.167 626.691 442.5 626.691 414.5C626.691 386.5 633.358 362.833 646.691 343.5C660.025 323.833 678.525 309 702.191 299C726.191 289 753.858 284 785.191 284C816.525 284 843.858 289 867.191 299C890.858 309 909.358 323.833 922.691 343.5C936.025 362.833 942.691 386.5 942.691 414.5C942.691 442.5 936.025 466.167 922.691 485.5C909.358 504.5 890.858 519 867.191 529C843.858 539 816.525 544 785.191 544ZM785.191 494C802.525 494 818.025 491 831.691 485C845.691 478.667 856.691 469.667 864.691 458C872.691 446 876.691 431.5 876.691 414.5C876.691 397.5 872.691 383 864.691 371C856.691 358.667 845.858 349.333 832.191 343C818.525 336.667 802.858 333.5 785.191 333.5C767.858 333.5 752.191 336.667 738.191 343C724.191 349.333 713.025 358.5 704.691 370.5C696.691 382.5 692.691 397.167 692.691 414.5C692.691 431.5 696.691 446 704.691 458C712.691 469.667 723.691 478.667 737.691 485C751.691 491 767.525 494 785.191 494ZM990.742 289.5H1055.74V538H990.742V289.5ZM1151.24 343C1132.58 343 1116.41 346.667 1102.74 354C1089.08 361 1078.08 369.667 1069.74 380C1061.41 390.333 1055.58 400.333 1052.24 410L1051.74 382.5C1052.08 378.5 1053.41 372.667 1055.74 365C1058.08 357 1061.58 348.5 1066.24 339.5C1070.91 330.167 1077.08 321.333 1084.74 313C1092.41 304.333 1101.74 297.333 1112.74 292C1123.74 286.667 1136.58 284 1151.24 284V343ZM1312.43 543.5C1287.76 543.5 1265.26 538.167 1244.93 527.5C1224.93 516.5 1208.93 501.333 1196.93 482C1185.26 462.333 1179.43 439.667 1179.43 414C1179.43 387.667 1185.43 364.833 1197.43 345.5C1209.43 326.167 1225.59 311.167 1245.93 300.5C1266.59 289.5 1289.93 284 1315.93 284C1344.59 284 1367.59 289.833 1384.93 301.5C1402.59 312.833 1415.43 328.333 1423.43 348C1431.43 367.667 1435.43 389.667 1435.43 414C1435.43 428.667 1433.09 443.667 1428.43 459C1423.76 474 1416.59 488 1406.93 501C1397.26 513.667 1384.59 524 1368.93 532C1353.26 539.667 1334.43 543.5 1312.43 543.5ZM1333.43 493.5C1353.09 493.5 1370.09 490.167 1384.43 483.5C1398.76 476.833 1409.76 467.5 1417.43 455.5C1425.09 443.5 1428.93 429.667 1428.93 414C1428.93 397 1424.93 382.667 1416.93 371C1409.26 359 1398.26 350 1383.93 344C1369.93 337.667 1353.09 334.5 1333.43 334.5C1305.76 334.5 1284.26 341.833 1268.93 356.5C1253.59 370.833 1245.93 390 1245.93 414C1245.93 430 1249.59 444 1256.93 456C1264.26 467.667 1274.43 476.833 1287.43 483.5C1300.76 490.167 1316.09 493.5 1333.43 493.5ZM1428.93 289.5H1493.93V538H1433.43C1433.43 538 1432.93 534.833 1431.93 528.5C1431.26 521.833 1430.59 513.5 1429.93 503.5C1429.26 493.5 1428.93 483.667 1428.93 474V289.5ZM1732.36 467.5V412H1946.36V467.5H1732.36ZM1651.86 538L1803.86 214.5H1875.86L2029.36 538H1956.86L1823.86 246.5H1855.86L1723.86 538H1651.86ZM2085.89 214.5H2152.39V538H2085.89V214.5Z" fill="url(#paint0_linear_161_34)"/>
<defs>
<linearGradient id="paint0_linear_161_34" x1="-539.898" y1="292.5" x2="2877.1" y2="1582.29" gradientUnits="userSpaceOnUse">
<stop offset="0.614885" stop-color="#407CD3"/>
<stop offset="1" stop-color="white" stop-opacity="0"/>
</linearGradient>
</defs>
</svg>
