<svg width="500" height="500" viewBox="0 0 500 500" fill="none" xmlns="http://www.w3.org/2000/svg">
<rect width="500" height="500" rx="250" fill="#070707"/>
<path d="M70.7309 248.3H90.9809C91.3809 251.7 92.9309 254.8 95.6309 257.6C98.4309 260.3 102.081 262.45 106.581 264.05C111.081 265.55 116.131 266.3 121.731 266.3C126.831 266.3 131.031 265.75 134.331 264.65C137.631 263.55 140.081 262 141.681 260C143.281 258 144.081 255.6 144.081 252.8C144.081 250.1 143.081 248.05 141.081 246.65C139.081 245.15 135.931 243.95 131.631 243.05C127.331 242.05 121.681 241.05 114.681 240.05C109.181 239.25 103.981 238.15 99.0809 236.75C94.1809 235.25 89.8309 233.35 86.0309 231.05C82.3309 228.75 79.3809 225.95 77.1809 222.65C75.0809 219.25 74.0309 215.25 74.0309 210.65C74.0309 204.95 75.6309 199.95 78.8309 195.65C82.1309 191.35 86.9809 188 93.3809 185.6C99.7809 183.2 107.631 182 116.931 182C130.931 182 141.681 185 149.181 191C156.781 196.9 160.481 205.05 160.281 215.45H140.781C140.381 209.55 137.881 205.3 133.281 202.7C128.781 200.1 123.081 198.8 116.181 198.8C109.781 198.8 104.481 199.75 100.281 201.65C96.1809 203.55 94.1309 206.8 94.1309 211.4C94.1309 213.2 94.6309 214.8 95.6309 216.2C96.6309 217.5 98.3309 218.65 100.731 219.65C103.131 220.65 106.381 221.6 110.481 222.5C114.581 223.4 119.681 224.3 125.781 225.2C131.481 226 136.631 227.1 141.231 228.5C145.931 229.8 149.931 231.55 153.231 233.75C156.631 235.85 159.231 238.55 161.031 241.85C162.831 245.15 163.731 249.2 163.731 254C163.731 259.9 162.181 265.05 159.081 269.45C156.081 273.75 151.381 277.1 144.981 279.5C138.681 281.9 130.481 283.1 120.381 283.1C113.181 283.1 106.831 282.35 101.331 280.85C95.8309 279.25 91.0809 277.15 87.0809 274.55C83.0809 271.95 79.8309 269.1 77.3309 266C74.8309 262.9 73.0309 259.8 71.9309 256.7C70.9309 253.6 70.5309 250.8 70.7309 248.3ZM222.731 282.8C213.331 282.8 205.031 281.3 197.831 278.3C190.731 275.3 185.181 270.95 181.181 265.25C177.181 259.45 175.181 252.35 175.181 243.95C175.181 235.55 177.181 228.45 181.181 222.65C185.181 216.75 190.731 212.3 197.831 209.3C205.031 206.3 213.331 204.8 222.731 204.8C232.131 204.8 240.331 206.3 247.331 209.3C254.431 212.3 259.981 216.75 263.981 222.65C267.981 228.45 269.981 235.55 269.981 243.95C269.981 252.35 267.981 259.45 263.981 265.25C259.981 270.95 254.431 275.3 247.331 278.3C240.331 281.3 232.131 282.8 222.731 282.8ZM222.731 267.8C227.931 267.8 232.581 266.9 236.681 265.1C240.881 263.2 244.181 260.5 246.581 257C248.981 253.4 250.181 249.05 250.181 243.95C250.181 238.85 248.981 234.5 246.581 230.9C244.181 227.2 240.931 224.4 236.831 222.5C232.731 220.6 228.031 219.65 222.731 219.65C217.531 219.65 212.831 220.6 208.631 222.5C204.431 224.4 201.081 227.15 198.581 230.75C196.181 234.35 194.981 238.75 194.981 243.95C194.981 249.05 196.181 253.4 198.581 257C200.981 260.5 204.281 263.2 208.481 265.1C212.681 266.9 217.431 267.8 222.731 267.8ZM284.396 206.45H303.896V281H284.396V206.45ZM332.546 222.5C326.946 222.5 322.096 223.6 317.996 225.8C313.896 227.9 310.596 230.5 308.096 233.6C305.596 236.7 303.846 239.7 302.846 242.6L302.696 234.35C302.796 233.15 303.196 231.4 303.896 229.1C304.596 226.7 305.646 224.15 307.046 221.45C308.446 218.65 310.296 216 312.596 213.5C314.896 210.9 317.696 208.8 320.996 207.2C324.296 205.6 328.146 204.8 332.546 204.8V222.5ZM380.902 282.65C373.502 282.65 366.752 281.05 360.652 277.85C354.652 274.55 349.852 270 346.252 264.2C342.752 258.3 341.002 251.5 341.002 243.8C341.002 235.9 342.802 229.05 346.402 223.25C350.002 217.45 354.852 212.95 360.952 209.75C367.152 206.45 374.152 204.8 381.952 204.8C390.552 204.8 397.452 206.55 402.652 210.05C407.952 213.45 411.802 218.1 414.202 224C416.602 229.9 417.802 236.5 417.802 243.8C417.802 248.2 417.102 252.7 415.702 257.3C414.302 261.8 412.152 266 409.252 269.9C406.352 273.7 402.552 276.8 397.852 279.2C393.152 281.5 387.502 282.65 380.902 282.65ZM387.202 267.65C393.102 267.65 398.202 266.65 402.502 264.65C406.802 262.65 410.102 259.85 412.402 256.25C414.702 252.65 415.852 248.5 415.852 243.8C415.852 238.7 414.652 234.4 412.252 230.9C409.952 227.3 406.652 224.6 402.352 222.8C398.152 220.9 393.102 219.95 387.202 219.95C378.902 219.95 372.452 222.15 367.852 226.55C363.252 230.85 360.952 236.6 360.952 243.8C360.952 248.6 362.052 252.8 364.252 256.4C366.452 259.9 369.502 262.65 373.402 264.65C377.402 266.65 382.002 267.65 387.202 267.65ZM415.852 206.45H435.352V281H417.202C417.202 281 417.052 280.05 416.752 278.15C416.552 276.15 416.352 273.65 416.152 270.65C415.952 267.65 415.852 264.7 415.852 261.8V206.45Z" fill="url(#paint0_linear_164_24)"/>
<defs>
<linearGradient id="paint0_linear_164_24" x1="-128.951" y1="196" x2="612.46" y2="431.711" gradientUnits="userSpaceOnUse">
<stop offset="0.35977" stop-color="#407CD3"/>
<stop offset="1" stop-color="white" stop-opacity="0"/>
</linearGradient>
</defs>
</svg>
