<svg width="1478" height="1478" viewBox="0 0 1478 1478" fill="none" xmlns="http://www.w3.org/2000/svg">
<rect width="1478" height="1478" rx="739" fill="#070707"/>
<path d="M131.77 742H199.27C200.603 753.333 205.77 763.667 214.77 773C224.103 782 236.27 789.167 251.27 794.5C266.27 799.5 283.103 802 301.77 802C318.77 802 332.77 800.167 343.77 796.5C354.77 792.833 362.936 787.667 368.27 781C373.603 774.333 376.27 766.333 376.27 757C376.27 748 372.936 741.167 366.27 736.5C359.603 731.5 349.103 727.5 334.77 724.5C320.436 721.167 301.603 717.833 278.27 714.5C259.936 711.833 242.603 708.167 226.27 703.5C209.936 698.5 195.436 692.167 182.77 684.5C170.436 676.833 160.603 667.5 153.27 656.5C146.27 645.167 142.77 631.833 142.77 616.5C142.77 597.5 148.103 580.833 158.77 566.5C169.77 552.167 185.936 541 207.27 533C228.603 525 254.77 521 285.77 521C332.436 521 368.27 531 393.27 551C418.603 570.667 430.936 597.833 430.27 632.5H365.27C363.936 612.833 355.603 598.667 340.27 590C325.27 581.333 306.27 577 283.27 577C261.936 577 244.27 580.167 230.27 586.5C216.603 592.833 209.77 603.667 209.77 619C209.77 625 211.436 630.333 214.77 635C218.103 639.333 223.77 643.167 231.77 646.5C239.77 649.833 250.603 653 264.27 656C277.936 659 294.936 662 315.27 665C334.27 667.667 351.436 671.333 366.77 676C382.436 680.333 395.77 686.167 406.77 693.5C418.103 700.5 426.77 709.5 432.77 720.5C438.77 731.5 441.77 745 441.77 761C441.77 780.667 436.603 797.833 426.27 812.5C416.27 826.833 400.603 838 379.27 846C358.27 854 330.936 858 297.27 858C273.27 858 252.103 855.5 233.77 850.5C215.436 845.167 199.603 838.167 186.27 829.5C172.936 820.833 162.103 811.333 153.77 801C145.436 790.667 139.436 780.333 135.77 770C132.436 759.667 131.103 750.333 131.77 742ZM638.438 857C607.104 857 579.438 852 555.438 842C531.771 832 513.271 817.5 499.938 798.5C486.604 779.167 479.938 755.5 479.938 727.5C479.938 699.5 486.604 675.833 499.938 656.5C513.271 636.833 531.771 622 555.438 612C579.438 602 607.104 597 638.438 597C669.771 597 697.104 602 720.438 612C744.104 622 762.604 636.833 775.938 656.5C789.271 675.833 795.938 699.5 795.938 727.5C795.938 755.5 789.271 779.167 775.938 798.5C762.604 817.5 744.104 832 720.438 842C697.104 852 669.771 857 638.438 857ZM638.438 807C655.771 807 671.271 804 684.938 798C698.938 791.667 709.938 782.667 717.938 771C725.938 759 729.938 744.5 729.938 727.5C729.938 710.5 725.938 696 717.938 684C709.938 671.667 699.104 662.333 685.438 656C671.771 649.667 656.104 646.5 638.438 646.5C621.104 646.5 605.438 649.667 591.438 656C577.438 662.333 566.271 671.5 557.938 683.5C549.938 695.5 545.938 710.167 545.938 727.5C545.938 744.5 549.938 759 557.938 771C565.938 782.667 576.938 791.667 590.938 798C604.938 804 620.771 807 638.438 807ZM843.988 602.5H908.988V851H843.988V602.5ZM1004.49 656C985.822 656 969.655 659.667 955.988 667C942.322 674 931.322 682.667 922.988 693C914.655 703.333 908.822 713.333 905.488 723L904.988 695.5C905.322 691.5 906.655 685.667 908.988 678C911.322 670 914.822 661.5 919.488 652.5C924.155 643.167 930.322 634.333 937.988 626C945.655 617.333 954.988 610.333 965.988 605C976.988 599.667 989.822 597 1004.49 597V656ZM1165.67 856.5C1141.01 856.5 1118.51 851.167 1098.17 840.5C1078.17 829.5 1062.17 814.333 1050.17 795C1038.51 775.333 1032.67 752.667 1032.67 727C1032.67 700.667 1038.67 677.833 1050.67 658.5C1062.67 639.167 1078.84 624.167 1099.17 613.5C1119.84 602.5 1143.17 597 1169.17 597C1197.84 597 1220.84 602.833 1238.17 614.5C1255.84 625.833 1268.67 641.333 1276.67 661C1284.67 680.667 1288.67 702.667 1288.67 727C1288.67 741.667 1286.34 756.667 1281.67 772C1277.01 787 1269.84 801 1260.17 814C1250.51 826.667 1237.84 837 1222.17 845C1206.51 852.667 1187.67 856.5 1165.67 856.5ZM1186.67 806.5C1206.34 806.5 1223.34 803.167 1237.67 796.5C1252.01 789.833 1263.01 780.5 1270.67 768.5C1278.34 756.5 1282.17 742.667 1282.17 727C1282.17 710 1278.17 695.667 1270.17 684C1262.51 672 1251.51 663 1237.17 657C1223.17 650.667 1206.34 647.5 1186.67 647.5C1159.01 647.5 1137.51 654.833 1122.17 669.5C1106.84 683.833 1099.17 703 1099.17 727C1099.17 743 1102.84 757 1110.17 769C1117.51 780.667 1127.67 789.833 1140.67 796.5C1154.01 803.167 1169.34 806.5 1186.67 806.5ZM1282.17 602.5H1347.17V851H1286.67C1286.67 851 1286.17 847.833 1285.17 841.5C1284.51 834.833 1283.84 826.5 1283.17 816.5C1282.51 806.5 1282.17 796.667 1282.17 787V602.5Z" fill="url(#paint0_linear_164_24)"/>
<path d="M131.77 742H199.27C200.603 753.333 205.77 763.667 214.77 773C224.103 782 236.27 789.167 251.27 794.5C266.27 799.5 283.103 802 301.77 802C318.77 802 332.77 800.167 343.77 796.5C354.77 792.833 362.936 787.667 368.27 781C373.603 774.333 376.27 766.333 376.27 757C376.27 748 372.936 741.167 366.27 736.5C359.603 731.5 349.103 727.5 334.77 724.5C320.436 721.167 301.603 717.833 278.27 714.5C259.936 711.833 242.603 708.167 226.27 703.5C209.936 698.5 195.436 692.167 182.77 684.5C170.436 676.833 160.603 667.5 153.27 656.5C146.27 645.167 142.77 631.833 142.77 616.5C142.77 597.5 148.103 580.833 158.77 566.5C169.77 552.167 185.936 541 207.27 533C228.603 525 254.77 521 285.77 521C332.436 521 368.27 531 393.27 551C418.603 570.667 430.936 597.833 430.27 632.5H365.27C363.936 612.833 355.603 598.667 340.27 590C325.27 581.333 306.27 577 283.27 577C261.936 577 244.27 580.167 230.27 586.5C216.603 592.833 209.77 603.667 209.77 619C209.77 625 211.436 630.333 214.77 635C218.103 639.333 223.77 643.167 231.77 646.5C239.77 649.833 250.603 653 264.27 656C277.936 659 294.936 662 315.27 665C334.27 667.667 351.436 671.333 366.77 676C382.436 680.333 395.77 686.167 406.77 693.5C418.103 700.5 426.77 709.5 432.77 720.5C438.77 731.5 441.77 745 441.77 761C441.77 780.667 436.603 797.833 426.27 812.5C416.27 826.833 400.603 838 379.27 846C358.27 854 330.936 858 297.27 858C273.27 858 252.103 855.5 233.77 850.5C215.436 845.167 199.603 838.167 186.27 829.5C172.936 820.833 162.103 811.333 153.77 801C145.436 790.667 139.436 780.333 135.77 770C132.436 759.667 131.103 750.333 131.77 742ZM638.438 857C607.104 857 579.438 852 555.438 842C531.771 832 513.271 817.5 499.938 798.5C486.604 779.167 479.938 755.5 479.938 727.5C479.938 699.5 486.604 675.833 499.938 656.5C513.271 636.833 531.771 622 555.438 612C579.438 602 607.104 597 638.438 597C669.771 597 697.104 602 720.438 612C744.104 622 762.604 636.833 775.938 656.5C789.271 675.833 795.938 699.5 795.938 727.5C795.938 755.5 789.271 779.167 775.938 798.5C762.604 817.5 744.104 832 720.438 842C697.104 852 669.771 857 638.438 857ZM638.438 807C655.771 807 671.271 804 684.938 798C698.938 791.667 709.938 782.667 717.938 771C725.938 759 729.938 744.5 729.938 727.5C729.938 710.5 725.938 696 717.938 684C709.938 671.667 699.104 662.333 685.438 656C671.771 649.667 656.104 646.5 638.438 646.5C621.104 646.5 605.438 649.667 591.438 656C577.438 662.333 566.271 671.5 557.938 683.5C549.938 695.5 545.938 710.167 545.938 727.5C545.938 744.5 549.938 759 557.938 771C565.938 782.667 576.938 791.667 590.938 798C604.938 804 620.771 807 638.438 807ZM843.988 602.5H908.988V851H843.988V602.5ZM1004.49 656C985.822 656 969.655 659.667 955.988 667C942.322 674 931.322 682.667 922.988 693C914.655 703.333 908.822 713.333 905.488 723L904.988 695.5C905.322 691.5 906.655 685.667 908.988 678C911.322 670 914.822 661.5 919.488 652.5C924.155 643.167 930.322 634.333 937.988 626C945.655 617.333 954.988 610.333 965.988 605C976.988 599.667 989.822 597 1004.49 597V656ZM1165.67 856.5C1141.01 856.5 1118.51 851.167 1098.17 840.5C1078.17 829.5 1062.17 814.333 1050.17 795C1038.51 775.333 1032.67 752.667 1032.67 727C1032.67 700.667 1038.67 677.833 1050.67 658.5C1062.67 639.167 1078.84 624.167 1099.17 613.5C1119.84 602.5 1143.17 597 1169.17 597C1197.84 597 1220.84 602.833 1238.17 614.5C1255.84 625.833 1268.67 641.333 1276.67 661C1284.67 680.667 1288.67 702.667 1288.67 727C1288.67 741.667 1286.34 756.667 1281.67 772C1277.01 787 1269.84 801 1260.17 814C1250.51 826.667 1237.84 837 1222.17 845C1206.51 852.667 1187.67 856.5 1165.67 856.5ZM1186.67 806.5C1206.34 806.5 1223.34 803.167 1237.67 796.5C1252.01 789.833 1263.01 780.5 1270.67 768.5C1278.34 756.5 1282.17 742.667 1282.17 727C1282.17 710 1278.17 695.667 1270.17 684C1262.51 672 1251.51 663 1237.17 657C1223.17 650.667 1206.34 647.5 1186.67 647.5C1159.01 647.5 1137.51 654.833 1122.17 669.5C1106.84 683.833 1099.17 703 1099.17 727C1099.17 743 1102.84 757 1110.17 769C1117.51 780.667 1127.67 789.833 1140.67 796.5C1154.01 803.167 1169.34 806.5 1186.67 806.5ZM1282.17 602.5H1347.17V851H1286.67C1286.67 851 1286.17 847.833 1285.17 841.5C1284.51 834.833 1283.84 826.5 1283.17 816.5C1282.51 806.5 1282.17 796.667 1282.17 787V602.5Z" fill="url(#paint1_linear_164_24)"/>
<defs>
<linearGradient id="paint0_linear_164_24" x1="-532.911" y1="605.5" x2="2011" y2="1274.5" gradientUnits="userSpaceOnUse">
<stop offset="0.229993" stop-color="#407CD3"/>
<stop offset="1" stop-color="white" stop-opacity="0"/>
</linearGradient>
<linearGradient id="paint1_linear_164_24" x1="-532.911" y1="605.5" x2="2011" y2="1274.5" gradientUnits="userSpaceOnUse">
<stop offset="0.35977" stop-color="#407CD3"/>
<stop offset="1" stop-color="white" stop-opacity="0"/>
</linearGradient>
</defs>
</svg>
